<?xml version="1.0" encoding="UTF-8" standalone="no"?>
<!DOCTYPE svg PUBLIC "-//W3C//DTD SVG 1.1//EN" "http://www.w3.org/Graphics/SVG/1.1/DTD/svg11.dtd">
<svg width="2000.00" height="1200.00" viewBox="0.00 0.00 2000.00 1200.00" xmlns="http://www.w3.org/2000/svg" xmlns:xlink="http://www.w3.org/1999/xlink">
<g stroke-linecap="round" transform="translate(-500.00, 0.00)" id="Layer_3">
<path d="M-1345.12,463.06 L4528.21,463.06 L4528.21,1450.98 L-1345.12,1450.98 L-1345.12,463.06 Z" fill="none" stroke="rgb(255, 255, 255)" stroke-width="18.07" stroke-opacity="1.00" stroke-linejoin="miter"/>
<path d="M-1164.40,336.55 L3811.37,336.55 L3811.37,1366.64 L-1164.40,1366.64 L-1164.40,336.55 Z" fill="none" stroke="rgb(252, 244, 208)" stroke-width="18.07" stroke-opacity="1.00" stroke-linejoin="miter"/>
<path d="M3227.04,1312.43 C3206.03,1312.41 3158.43,1312.38 3131.84,1312.36 C3099.69,1312.34 3029.81,1312.28 2992.08,1312.26 C2949.52,1312.23 2867.27,1312.18 2827.58,1312.17 C2792.80,1312.18 2728.15,1312.23 2698.29,1312.27 C2673.34,1312.33 2596.95,1312.86 2574.79,1313.75 C2564.98,1314.37 2539.63,1316.26 2533.84,1317.21 C2528.15,1318.11 2490.20,1318.64 2475.60,1318.71 C2439.23,1318.61 2379.72,1318.49 2356.59,1318.45 C2370.02,1318.15 2402.61,1317.33 2418.92,1315.87 C2426.12,1315.04 2438.63,1313.17 2444.54,1312.06 C2457.46,1309.14 2490.10,1302.41 2509.82,1298.59 C2537.05,1293.79 2598.77,1283.17 2633.25,1277.36 C2665.89,1272.20 2732.82,1262.17 2767.12,1257.31 C2798.27,1253.61 2858.73,1246.24 2888.05,1242.57 C2922.35,1237.61 2988.02,1228.02 3014.71,1224.66 C3023.05,1223.79 3042.17,1222.32 3050.37,1221.98 C3052.64,1221.92 3071.53,1221.70 3078.56,1221.37 C3093.08,1220.35 3124.02,1216.12 3140.02,1213.71 C3157.16,1211.54 3177.22,1210.04 3187.91,1210.00 C3222.38,1210.03 3292.13,1210.12 3327.41,1210.18 C3364.65,1210.19 3438.21,1210.03 3438.59,1210.04 C3440.64,1210.07 3441.67,1209.85 3442.39,1209.04 C3442.95,1208.40 3446.49,1204.23 3449.93,1200.99 C3449.31,1199.81 3448.00,1198.37 3446.92,1197.97 C3446.19,1197.72 3438.71,1198.61 3434.87,1197.97 C3431.22,1197.34 3413.16,1191.95 3405.16,1191.89 C3377.80,1191.60 3311.10,1191.35 3271.75,1191.39 C3236.17,1191.55 3164.15,1191.93 3149.95,1192.60 C3144.40,1192.76 3131.20,1190.54 3123.82,1188.94 C3115.67,1187.18 3099.89,1185.49 3091.77,1185.34 C3088.18,1185.27 3052.08,1186.07 3043.31,1185.93 C3043.31,1185.93 3040.30,1176.89 3040.30,1176.89 C3042.07,1175.63 3044.72,1174.21 3046.33,1173.88 C3047.53,1173.63 3051.83,1174.49 3051.97,1174.49 C3054.35,1174.51 3060.10,1171.62 3061.91,1170.44 C3068.26,1166.21 3078.56,1160.70 3086.92,1156.56 C3093.38,1153.47 3107.21,1146.96 3115.37,1143.90 C3122.75,1141.15 3140.40,1135.74 3147.45,1133.78 C3167.93,1128.56 3242.05,1112.98 3273.93,1106.40 C3276.50,1105.79 3282.22,1104.40 3284.61,1103.47 C3286.08,1102.89 3290.96,1100.00 3296.32,1098.58 C3300.44,1097.51 3319.55,1094.38 3326.64,1093.12 C3331.17,1092.28 3337.28,1089.69 3338.49,1089.54 C3339.66,1089.41 3342.77,1090.05 3343.72,1090.06 C3346.53,1090.07 3352.58,1087.81 3357.02,1085.76 C3361.20,1083.88 3366.20,1082.62 3368.61,1083.52 C3371.09,1084.44 3376.22,1083.09 3380.82,1080.77 C3385.44,1078.38 3388.73,1076.01 3389.69,1074.48 C3389.15,1073.47 3387.78,1071.94 3386.68,1071.47 C3386.08,1071.23 3375.85,1070.55 3372.26,1070.89 C3367.95,1071.34 3362.48,1073.57 3358.35,1076.32 C3357.93,1076.61 3357.33,1077.00 3356.56,1077.50 C3361.01,1076.44 3364.76,1075.10 3368.44,1072.89 C3370.66,1071.55 3378.70,1066.28 3380.65,1065.45 C3382.90,1064.50 3385.95,1064.32 3386.78,1064.07 C3387.94,1063.72 3390.54,1061.80 3391.71,1060.54 C3393.08,1059.04 3399.00,1051.88 3401.74,1050.39 C3404.84,1048.77 3414.25,1048.37 3416.80,1047.38 C3419.62,1046.23 3426.44,1039.82 3428.85,1038.34 C3431.16,1036.94 3439.23,1034.10 3440.89,1032.32 C3442.64,1030.35 3443.75,1024.21 3443.91,1020.27 C3443.98,1018.07 3443.68,1009.73 3443.91,1008.22 C3444.32,1005.84 3445.54,1003.22 3446.92,1002.20 C3447.88,1001.50 3451.97,999.67 3452.94,999.18 C3454.07,998.61 3455.43,997.25 3455.95,996.17 C3457.85,991.76 3459.71,989.09 3463.12,986.15 C3465.15,984.35 3468.31,977.43 3469.67,976.17 C3469.91,975.96 3470.36,975.60 3471.01,975.09 C3446.85,980.88 3423.83,985.45 3409.88,985.78 C3401.58,985.92 3388.41,986.93 3379.77,987.95 C3368.40,989.48 3333.95,995.41 3319.56,997.99 C3293.65,1003.07 3226.61,1017.38 3193.72,1024.47 C3178.86,1027.51 3137.90,1035.46 3128.59,1036.59 C3123.72,1037.17 3089.10,1038.99 3074.64,1039.64 C3059.75,1040.68 3035.05,1044.32 3015.38,1048.17 C3000.04,1051.17 2964.21,1058.04 2955.78,1059.11 C2948.39,1060.00 2937.03,1059.53 2931.36,1059.13 C2923.39,1058.97 2884.62,1061.77 2868.09,1063.17 C2850.60,1064.43 2817.19,1065.74 2801.18,1065.79 C2785.61,1065.45 2754.19,1065.16 2738.02,1065.60 C2714.46,1066.80 2650.78,1072.00 2644.08,1071.78 C2642.11,1071.71 2637.15,1071.07 2633.42,1071.11 C2626.90,1071.18 2584.41,1075.24 2572.70,1076.18 C2554.13,1077.29 2525.13,1078.07 2510.45,1078.11 C2477.89,1077.82 2416.17,1077.40 2387.00,1077.29 C2354.75,1077.32 2289.56,1077.56 2256.60,1077.76 C2222.54,1078.06 2157.57,1078.23 2130.74,1077.61 C2107.96,1076.54 2083.67,1074.25 2066.77,1071.70 C2055.95,1070.32 2023.82,1067.80 2008.96,1067.14 C1993.10,1066.73 1960.22,1066.25 1944.09,1065.94 C1927.76,1065.30 1894.96,1063.60 1878.49,1062.53 C1846.70,1059.66 1798.74,1055.05 1784.58,1053.81 C1767.58,1052.71 1741.55,1053.57 1727.62,1052.81 C1719.60,1052.25 1705.33,1049.80 1697.72,1047.72 C1696.83,1047.48 1675.88,1041.35 1670.19,1039.89 C1662.47,1038.11 1654.91,1036.91 1639.74,1035.33 C1610.26,1032.86 1554.96,1029.37 1541.92,1029.06 C1532.51,1029.02 1521.32,1029.82 1514.81,1029.65 C1504.87,1029.38 1464.46,1025.11 1452.72,1024.08 C1440.84,1023.23 1417.03,1022.65 1402.03,1022.94 C1367.31,1023.12 1303.36,1023.31 1274.13,1023.31 C1237.65,1023.27 1160.24,1023.18 1119.31,1023.13 C1085.68,1023.12 1027.02,1023.18 1001.99,1023.23 C992.25,1023.28 987.05,1023.51 978.80,1025.08 C972.95,1026.20 884.68,1034.71 846.23,1038.30 C831.72,1039.50 794.35,1042.42 785.28,1041.47 C779.40,1040.85 767.64,1041.38 759.74,1042.29 C752.44,1043.29 737.25,1045.68 727.15,1046.68 C721.34,1047.21 702.79,1047.98 694.72,1048.06 C679.33,1047.79 635.99,1046.68 634.15,1046.70 C628.83,1046.78 615.88,1048.57 609.55,1050.01 C601.80,1051.77 585.72,1053.34 577.18,1053.50 C549.79,1053.77 484.46,1054.01 446.52,1054.00 C409.42,1053.85 346.18,1053.56 320.03,1053.42 C317.03,1053.41 295.20,1052.65 291.25,1052.83 C285.07,1053.14 264.89,1057.13 263.42,1057.43 C256.00,1058.91 242.18,1059.80 235.96,1059.45 C233.87,1059.33 226.10,1058.54 222.64,1058.48 C215.63,1058.38 196.33,1060.10 189.06,1060.95 C172.81,1063.20 139.34,1068.43 124.24,1070.74 C114.14,1072.10 102.77,1072.82 96.42,1072.05 C89.62,1071.42 5.88,1071.38 -31.93,1071.45 C-63.46,1071.47 -122.05,1071.19 -149.09,1070.89 C-167.47,1070.87 -242.39,1072.58 -272.33,1073.36 C-309.66,1074.42 -378.54,1076.29 -410.08,1077.09 C-426.74,1077.42 -463.93,1077.88 -484.47,1078.01 C-495.67,1077.81 -510.34,1077.56 -513.82,1077.50" fill="none" stroke="rgb(252, 244, 208)" stroke-width="1204.79" stroke-opacity="1.00" stroke-linejoin="round"/>
<path d="M3558.36,896.78" fill="none" stroke="rgb(252, 244, 208)" stroke-width="1204.79" stroke-opacity="1.00" stroke-linejoin="round"/>
<path d="M3558.36,896.78 L-821.04,914.85" fill="none" stroke="rgb(252, 244, 208)" stroke-width="1204.79" stroke-opacity="1.00" stroke-linejoin="round"/>
<path d="M-821.04,914.85" fill="none" stroke="rgb(252, 244, 208)" stroke-width="1204.79" stroke-opacity="1.00" stroke-linejoin="round"/>
<path d="M3582.46,288.36" fill="none" stroke="rgb(255, 195, 139)" stroke-width="256.02" stroke-opacity="1.00" stroke-linejoin="round"/>
<path d="M3582.46,288.36 L-953.56,288.36" fill="none" stroke="rgb(255, 195, 139)" stroke-width="256.02" stroke-opacity="1.00" stroke-linejoin="round"/>
<path d="M-953.56,288.36" fill="none" stroke="rgb(255, 195, 139)" stroke-width="256.02" stroke-opacity="1.00" stroke-linejoin="round"/>
<path d="M-953.56,288.36 L3745.10,282.34" fill="none" stroke="rgb(255, 195, 139)" stroke-width="256.02" stroke-opacity="1.00" stroke-linejoin="round"/>
<path d="M3745.10,282.34" fill="none" stroke="rgb(255, 195, 139)" stroke-width="256.02" stroke-opacity="1.00" stroke-linejoin="round"/>
<path d="M3659.65,157.07" fill="none" stroke="rgb(184, 138, 96)" stroke-width="60.24" stroke-opacity="1.00" stroke-linejoin="round"/>
<path d="M3659.65,157.07 L-952.22,161.60" fill="none" stroke="rgb(184, 138, 96)" stroke-width="60.24" stroke-opacity="1.00" stroke-linejoin="round"/>
<path d="M-952.22,161.60" fill="none" stroke="rgb(184, 138, 96)" stroke-width="60.24" stroke-opacity="1.00" stroke-linejoin="round"/>
<path d="M3646.07,415.05" fill="none" stroke="rgb(223, 213, 171)" stroke-width="60.24" stroke-opacity="1.00" stroke-linejoin="round"/>
<path d="M3646.07,415.05 L-920.54,415.05" fill="none" stroke="rgb(223, 213, 171)" stroke-width="60.24" stroke-opacity="1.00" stroke-linejoin="round"/>
<path d="M-920.54,415.05" fill="none" stroke="rgb(223, 213, 171)" stroke-width="60.24" stroke-opacity="1.00" stroke-linejoin="round"/>
<path d="M3623.44,1216.13" fill="none" stroke="rgb(223, 213, 171)" stroke-width="120.48" stroke-opacity="1.00" stroke-linejoin="round"/>
<path d="M3623.44,1216.13 L-870.76,1220.65" fill="none" stroke="rgb(223, 213, 171)" stroke-width="120.48" stroke-opacity="1.00" stroke-linejoin="round"/>
<path d="M-870.76,1220.65" fill="none" stroke="rgb(223, 213, 171)" stroke-width="120.48" stroke-opacity="1.00" stroke-linejoin="round"/>
<path d="M3641.55,1207.08" fill="none" stroke="rgb(220, 172, 107)" stroke-width="120.48" stroke-opacity="1.00" stroke-linejoin="round"/>
<path d="M3641.55,1207.08 L-884.34,1207.08" fill="none" stroke="rgb(220, 172, 107)" stroke-width="120.48" stroke-opacity="1.00" stroke-linejoin="round"/>
<path d="M-884.34,1207.08" fill="none" stroke="rgb(220, 172, 107)" stroke-width="120.48" stroke-opacity="1.00" stroke-linejoin="round"/>
<path d="M3664.17,451.25" fill="none" stroke="rgb(220, 172, 107)" stroke-width="25.60" stroke-opacity="1.00" stroke-linejoin="round"/>
<path d="M3664.17,451.25 L-870.76,433.15" fill="none" stroke="rgb(220, 172, 107)" stroke-width="25.60" stroke-opacity="1.00" stroke-linejoin="round"/>
<path d="M-870.76,433.15" fill="none" stroke="rgb(220, 172, 107)" stroke-width="25.60" stroke-opacity="1.00" stroke-linejoin="round"/>
<path d="M3399.24,393.14" fill="none" stroke="rgb(220, 172, 107)" stroke-width="15.90" stroke-opacity="1.00" stroke-linejoin="round"/>
<path d="M245.22,-745.81" fill="none" stroke="rgb(220, 172, 107)" stroke-width="15.90" stroke-opacity="1.00" stroke-linejoin="round"/>
<path d="M3399.24,397.12" fill="none" stroke="rgb(220, 172, 107)" stroke-width="15.90" stroke-opacity="1.00" stroke-linejoin="round"/>
<path d="M3391.27,405.08" fill="none" stroke="rgb(220, 172, 107)" stroke-width="26.50" stroke-opacity="1.00" stroke-linejoin="round"/>
<path d="M3391.27,405.08 L-650.80,409.07" fill="none" stroke="rgb(220, 172, 107)" stroke-width="66.26" stroke-opacity="1.00" stroke-linejoin="round"/>
<path d="M-650.80,409.07" fill="none" stroke="rgb(220, 172, 107)" stroke-width="66.26" stroke-opacity="1.00" stroke-linejoin="round"/>
<path d="M3447.02,448.89" fill="none" stroke="rgb(184, 138, 96)" stroke-width="26.50" stroke-opacity="1.00" stroke-linejoin="round"/>
<path d="M3447.02,448.89 L-634.87,448.89" fill="none" stroke="rgb(184, 138, 96)" stroke-width="26.50" stroke-opacity="1.00" stroke-linejoin="round"/>
<path d="M-634.87,448.89" fill="none" stroke="rgb(184, 138, 96)" stroke-width="26.50" stroke-opacity="1.00" stroke-linejoin="round"/>
<path d="M3435.08,369.24 C3435.08,369.24 3435.08,361.28 3435.08,361.28 C3435.08,361.28 3431.10,361.28 3431.10,361.28 C3431.10,361.28 3431.10,357.30 3431.10,357.30 C3431.10,357.30 3427.11,357.30 3427.11,357.30 C3427.11,357.30 3419.15,357.30 3419.15,357.30" fill="none" stroke="rgb(252, 244, 208)" stroke-width="26.50" stroke-opacity="1.00" stroke-linejoin="round"/>
<path d="M3411.18,365.26" fill="none" stroke="rgb(223, 213, 171)" stroke-width="26.50" stroke-opacity="1.00" stroke-linejoin="round"/>
<path d="M3423.13,349.33 C3423.13,349.33 3419.15,345.35 3419.15,345.35" fill="none" stroke="rgb(223, 213, 171)" stroke-width="26.50" stroke-opacity="1.00" stroke-linejoin="round"/>
<path d="M3411.18,393.14" fill="none" stroke="rgb(223, 213, 171)" stroke-width="26.50" stroke-opacity="1.00" stroke-linejoin="round"/>
<path d="M3415.17,393.14 C3415.17,393.14 3411.18,393.14 3411.18,393.14" fill="none" stroke="rgb(223, 213, 171)" stroke-width="26.50" stroke-opacity="1.00" stroke-linejoin="round"/>
<path d="M3415.17,385.17 C3415.17,385.17 3415.17,389.16 3415.17,389.16 C3415.17,389.16 3411.18,389.16 3411.18,389.16" fill="none" stroke="rgb(223, 213, 171)" stroke-width="26.50" stroke-opacity="1.00" stroke-linejoin="round"/>
<path d="M3419.15,365.26" fill="none" stroke="rgb(223, 213, 171)" stroke-width="26.50" stroke-opacity="1.00" stroke-linejoin="round"/>
<path d="M-610.98,353.31 L3443.04,353.31 L3443.04,365.26 L-610.98,365.26 L-610.98,353.31 Z" fill="none" stroke="rgb(223, 213, 171)" stroke-width="15.90" stroke-opacity="1.00" stroke-linejoin="miter"/>
<path d="M-662.75,1129.87 L3494.81,1129.87 L3494.81,1141.82 L-662.75,1141.82 L-662.75,1129.87 Z" fill="none" stroke="rgb(184, 138, 96)" stroke-width="15.90" stroke-opacity="1.00" stroke-linejoin="miter"/>
<path d="M-603.01,333.40 L3462.95,333.40 L3462.95,361.28 L-603.01,361.28 L-603.01,333.40 Z" fill="none" stroke="rgb(255, 195, 139)" stroke-width="15.90" stroke-opacity="1.00" stroke-linejoin="miter"/>
<path d="M-622.93,178.09 L3419.15,178.09 L3419.15,186.06 L-622.93,186.06 L-622.93,178.09 Z" fill="none" stroke="rgb(255, 195, 139)" stroke-width="15.90" stroke-opacity="1.00" stroke-linejoin="miter"/>
<path d="M-638.86,166.14 L3435.08,166.14 L3435.08,174.11 L-638.86,174.11 L-638.86,166.14 Z" fill="none" stroke="rgb(255, 195, 139)" stroke-width="15.90" stroke-opacity="1.00" stroke-linejoin="miter"/>
<path d="M-686.64,401.10" fill="none" stroke="rgb(220, 164, 111)" stroke-width="106.01" stroke-opacity="1.00" stroke-linejoin="round"/>
<path d="M-571.67,402.64" fill="none" stroke="rgb(220, 164, 111)" stroke-width="79.51" stroke-opacity="1.00" stroke-linejoin="round"/>
<path d="M-571.67,402.64 L3488.81,398.40" fill="none" stroke="rgb(220, 164, 111)" stroke-width="79.51" stroke-opacity="1.00" stroke-linejoin="round"/>
<path d="M3488.81,398.40" fill="none" stroke="rgb(220, 164, 111)" stroke-width="79.51" stroke-opacity="1.00" stroke-linejoin="round"/>
<path d="M1869.70,283.96 C1843.57,283.96 1780.45,283.97 1743.48,283.97 C1707.46,283.94 1640.33,284.02 1609.23,284.12 C1571.61,284.97 1546.55,287.15 1494.43,288.08 C1459.99,288.32 1391.76,288.71 1357.96,288.87 C1345.19,289.00 1319.02,289.70 1305.62,290.26 C1295.09,290.33 1220.01,289.49 1185.18,289.06 C1147.53,288.66 1080.36,288.23 1050.83,288.20 C1023.14,288.52 989.11,289.68 973.88,290.96 C965.09,291.64 951.63,292.68 941.47,292.44 C942.19,294.53 942.85,295.29 944.50,295.52 C952.78,296.67 962.58,296.78 968.12,296.86 C983.25,296.98 1016.96,297.12 1035.54,297.15 C1052.87,296.95 1088.18,296.27 1106.17,295.79 C1122.98,295.03 1154.19,293.70 1168.60,293.13 C1197.43,292.50 1250.98,294.41 1283.03,295.27 C1312.23,295.68 1378.43,296.51 1415.41,296.92 C1450.26,297.03 1517.23,296.79 1549.35,296.43 C1571.50,295.68 1611.66,293.88 1626.94,292.62 C1639.53,291.49 1661.79,289.56 1671.46,288.77 C1680.06,288.10 1696.47,288.25 1701.01,287.77 C1704.22,287.42 1720.88,283.65 1725.60,283.96 C1714.21,286.99 1686.99,294.09 1665.45,296.91 C1653.20,298.36 1625.06,300.88 1610.21,302.06 C1593.41,302.98 1558.72,304.53 1540.82,305.15 C1512.05,305.59 1450.99,305.96 1418.70,305.90 C1384.17,305.45 1316.06,304.26 1282.48,303.52 C1247.58,302.56 1183.82,300.75 1154.95,299.91 C1120.68,298.83 1059.46,297.12 1032.52,296.50 C1000.65,296.20 936.19,295.16 903.59,294.42 C872.31,293.43 812.21,291.97 784.10,291.96 C751.32,292.55 683.79,294.07 649.04,295.00 C615.67,296.18 550.81,298.96 519.34,300.58 C502.71,301.20 489.06,300.93 487.96,300.91 C501.54,298.65 535.79,293.35 548.00,292.00 C562.93,290.64 594.77,288.62 609.74,287.99 C626.23,287.50 658.27,286.74 673.82,286.47 C698.51,286.43 761.88,287.84 796.61,288.84 C832.00,290.02 901.34,292.36 935.29,293.53 C965.31,294.63 1012.96,296.39 1047.15,296.65 C1077.30,296.65 1143.69,296.55 1179.93,296.45 C1216.31,296.24 1297.92,295.54 1306.84,295.18 C1319.63,294.47 1332.95,292.90 1336.26,292.69 C1342.77,292.27 1355.54,292.53 1366.66,293.25 C1376.88,294.12 1403.47,296.84 1406.01,297.10 C1406.01,297.10 1400.94,300.34 1400.94,300.34" fill="none" stroke="rgb(184, 138, 96)" stroke-width="22.53" stroke-opacity="0.90" stroke-linejoin="round"/>
<path d="M937.24,300.91 C922.67,299.40 887.89,296.14 878.99,296.24 C860.26,296.72 803.00,296.70 793.13,296.67" fill="none" stroke="rgb(184, 138, 96)" stroke-width="22.53" stroke-opacity="0.90" stroke-linejoin="round"/>
<path d="M670.21,288.20 C647.34,288.24 588.90,288.34 553.35,288.39 C516.35,288.29 447.38,287.98 415.40,287.76 C383.71,287.43 320.41,287.14 288.78,287.18 C272.68,287.40 238.41,288.03 220.26,288.45 C183.94,289.79 118.65,292.45 89.67,293.77 C78.83,294.29 60.99,295.23 53.98,295.66 C52.06,295.79 48.89,295.99 47.64,296.08" fill="none" stroke="rgb(184, 138, 96)" stroke-width="22.53" stroke-opacity="0.90" stroke-linejoin="round"/>
<path d="M1356.85,241.57 C1356.60,243.08 1357.47,245.19 1358.97,245.81 C1359.37,245.98 1360.08,245.98 1361.09,245.81" fill="none" stroke="rgb(184, 138, 96)" stroke-width="22.53" stroke-opacity="0.90" stroke-linejoin="round"/>
<path d="M1378.04,228.86" fill="none" stroke="rgb(184, 138, 96)" stroke-width="22.53" stroke-opacity="0.90" stroke-linejoin="round"/>
<path d="M1344.13,216.14 C1332.43,219.18 1322.38,220.88 1314.97,220.91 C1305.23,220.85 1292.91,221.83 1287.42,222.39 C1273.89,224.12 1240.64,227.90 1225.96,229.21 C1212.31,230.29 1182.62,232.48 1166.59,233.59 C1149.29,234.48 1114.36,235.93 1096.73,236.49 C1063.36,237.00 996.98,236.67 965.52,236.32 C948.32,235.87 914.03,234.67 900.75,233.88 C874.26,232.75 828.12,233.69 782.41,232.17 C764.29,231.30 729.76,229.52 713.35,228.59 C690.44,227.13 666.39,224.06 655.66,223.07 C639.28,221.91 615.58,220.20 608.25,219.64 C600.41,218.91 595.07,216.62 593.92,216.14 C624.95,216.14 691.27,216.12 726.56,216.10 C740.43,216.05 766.04,216.63 779.36,217.25 C798.01,218.39 824.28,218.80 842.72,218.41 C872.97,217.26 938.14,213.44 974.56,210.59 C1004.73,207.83 1061.37,203.25 1063.73,202.90 C1065.97,202.56 1075.71,200.80 1077.95,200.88 C1081.14,201.04 1084.67,202.95 1085.58,203.43 C1069.62,206.51 1047.06,209.46 1035.20,211.00 C1019.82,212.96 986.64,217.10 968.82,219.28 C951.18,221.26 916.32,224.94 899.10,226.66 C883.13,228.04 851.31,230.61 835.46,231.79 C803.93,233.68 740.56,237.13 708.74,238.70 C677.62,239.95 614.78,242.22 583.06,243.23 C551.08,243.96 484.15,245.08 449.19,245.48 C416.84,245.61 354.66,245.71 324.84,245.67 C306.69,245.41 253.40,242.18 235.77,240.96 C229.03,240.44 215.09,239.28 210.49,237.89 C209.87,237.70 209.26,237.52 208.64,237.33 C230.57,235.47 295.15,232.83 329.80,231.46 C347.78,230.82 380.80,229.69 395.84,229.21 C414.53,228.79 450.02,228.31 460.85,228.57 C483.69,228.63 549.08,224.95 572.32,224.89 C586.53,225.24 616.43,224.45 635.53,223.79 C665.53,222.26 734.88,218.54 774.23,216.34 C807.01,214.39 851.52,211.71 863.25,210.96 C871.18,210.41 883.46,207.19 888.68,207.54 C889.32,207.58 889.97,207.62 890.61,207.67 C890.25,207.67 889.90,207.67 889.54,207.67 C888.91,207.67 888.29,207.67 887.66,207.67" fill="none" stroke="rgb(184, 138, 96)" stroke-width="22.53" stroke-opacity="0.90" stroke-linejoin="round"/>
<path d="M780.41,211.90 C775.15,212.70 760.12,214.97 752.66,215.55 C740.17,216.50 702.80,216.23 686.80,216.04 C677.16,216.21 653.26,218.98 631.84,219.37 C597.10,219.60 530.67,220.16 498.96,220.49 C477.69,221.09 462.17,222.19 443.18,222.92 C414.66,223.48 352.93,224.43 319.72,224.81 C284.35,225.58 214.18,227.64 179.38,228.95 C144.67,230.74 81.69,234.02 53.43,235.51 C36.96,236.30 6.66,237.60 -7.19,238.11 C-19.77,238.75 -50.35,241.20 -64.60,242.47 C-97.28,245.83 -163.39,253.11 -196.83,257.04 C-232.41,262.12 -286.21,269.99 -304.42,272.78 C-307.85,273.29 -314.45,274.31 -317.63,274.81 C-318.40,274.94 -319.18,275.08 -319.95,275.21" fill="none" stroke="rgb(184, 138, 96)" stroke-width="22.53" stroke-opacity="0.90" stroke-linejoin="round"/>
<path d="M1856.99,267.00 C1854.87,267.06 1847.64,265.73 1846.82,265.31 C1846.24,265.01 1844.28,263.44 1843.28,263.19 C1842.06,262.89 1834.37,262.78 1832.85,262.77 C1832.42,262.77 1831.99,262.77 1831.56,262.77" fill="none" stroke="rgb(184, 138, 96)" stroke-width="22.53" stroke-opacity="0.90" stroke-linejoin="round"/>
<path d="M1814.60,258.53" fill="none" stroke="rgb(184, 138, 96)" stroke-width="22.53" stroke-opacity="0.90" stroke-linejoin="round"/>
<path d="M1810.37,245.81 C1810.37,245.81 1810.37,250.05 1810.37,250.05 C1819.47,254.01 1827.78,256.71 1837.03,258.88 C1844.07,260.36 1860.07,263.53 1867.49,264.49 C1881.00,266.11 1907.69,267.10 1926.92,267.03 C1959.89,267.04 2024.71,267.06 2056.55,267.07 C2074.57,266.80 2111.85,265.10 2116.18,264.38 C2118.51,263.84 2123.11,262.94 2129.95,263.19 C2135.17,263.40 2175.47,267.07 2176.27,267.00 C2178.38,266.82 2181.48,265.91 2183.16,265.13 C2174.26,267.18 2166.42,268.20 2156.16,268.84 C2139.11,269.60 2106.43,270.85 2090.80,271.35 C2065.46,271.54 1999.04,273.66 1965.10,274.93 C1947.16,275.47 1916.11,275.00 1909.23,275.96 C1905.21,276.53 1892.47,279.46 1891.32,279.72 C1902.71,279.07 1931.78,277.48 1949.46,276.55 C1967.63,275.97 2002.33,275.23 2018.86,275.06 C2048.83,275.27 2117.53,275.33 2138.01,274.55 C2153.26,273.62 2183.42,271.86 2197.88,271.39 C2205.10,271.32 2217.61,271.44 2227.68,271.22 C2243.78,270.46 2274.89,268.12 2291.34,266.75 C2305.88,265.26 2347.83,259.49 2352.21,259.12 C2369.11,257.71 2418.35,258.51 2419.46,258.53 C2398.00,261.59 2374.30,263.51 2358.25,264.53 C2342.86,265.32 2317.70,265.83 2303.07,265.79 C2274.40,265.18 2215.75,263.59 2185.77,262.61 C2147.72,260.61 2076.42,256.48 2043.18,254.34 C2005.49,251.67 1937.25,246.70 1906.71,244.41 C1900.79,243.94 1889.63,243.05 1884.40,242.62 C1877.41,242.09 1857.74,238.67 1854.27,238.18 C1846.21,237.12 1830.69,236.43 1826.97,235.12 C1826.24,234.86 1823.94,233.56 1823.08,233.10" fill="none" stroke="rgb(184, 138, 96)" stroke-width="22.53" stroke-opacity="0.90" stroke-linejoin="round"/>
<path d="M1899.37,216.14 C1899.37,216.14 1937.52,216.14 1937.52,216.14" fill="none" stroke="rgb(184, 138, 96)" stroke-width="22.53" stroke-opacity="0.90" stroke-linejoin="round"/>
<path d="M1979.91,207.67 C1991.86,207.57 2022.13,207.35 2040.45,207.23 C2056.72,207.40 2098.11,208.33 2110.52,209.78 C2129.51,212.02 2134.23,212.00 2135.88,211.90 C2110.95,211.88 2047.80,211.85 2009.59,211.84 C1991.88,211.89 1959.04,212.06 1943.92,212.17 C1888.75,213.07 1851.18,215.65 1826.98,215.91 C1813.99,215.76 1784.34,215.59 1763.69,215.88 C1731.85,216.83 1664.00,219.21 1627.99,220.64 C1597.58,221.78 1539.16,223.63 1511.15,224.34 C1479.09,225.44 1415.29,227.91 1383.55,229.28 C1365.47,230.37 1339.38,233.01 1324.15,232.62 C1313.39,232.14 1298.42,230.66 1292.34,228.96 C1290.82,228.53 1283.48,226.07 1283.10,225.89 C1282.73,225.71 1282.02,225.29 1280.97,224.62" fill="none" stroke="rgb(184, 138, 96)" stroke-width="22.53" stroke-opacity="0.90" stroke-linejoin="round"/>
<path d="M2713.17,254.29 C2713.17,254.29 2704.69,254.29 2704.69,254.29" fill="none" stroke="rgb(184, 138, 96)" stroke-width="22.53" stroke-opacity="0.90" stroke-linejoin="round"/>
<path d="M2645.35,237.33" fill="none" stroke="rgb(184, 138, 96)" stroke-width="22.53" stroke-opacity="0.90" stroke-linejoin="round"/>
<path d="M2641.11,233.10 C2648.87,232.70 2654.20,233.20 2665.38,234.84 C2682.66,237.65 2724.60,244.99 2730.48,246.65 C2737.24,248.79 2749.21,251.19 2754.37,252.09 C2760.49,253.07 2776.97,255.59 2781.50,256.10 C2798.76,257.75 2834.72,258.76 2851.03,258.84 C2885.24,258.44 2938.43,257.96 2952.46,258.30 C2959.75,258.58 2972.03,260.25 2977.37,261.36 C2983.01,262.55 2998.28,266.83 3005.59,269.43 C3008.93,270.65 3016.44,274.18 3020.00,276.16 C3022.13,277.36 3028.26,281.11 3030.39,283.73 C3030.72,284.13 3031.16,284.75 3031.73,285.59 C3030.74,288.74 3028.51,291.60 3025.17,293.61 C3022.12,295.37 3018.07,296.70 3013.46,297.76 C3007.38,299.06 2992.10,301.95 2983.41,303.29 C2969.03,305.12 2935.58,307.23 2919.64,307.68 C2886.64,307.92 2824.15,306.57 2792.64,305.74 C2776.60,305.75 2744.53,306.07 2728.50,306.38 C2712.66,306.43 2680.51,306.08 2664.20,305.69 C2648.05,304.92 2616.12,303.19 2600.34,302.22 C2583.68,300.88 2552.52,298.15 2540.28,296.79 C2527.43,295.01 2518.07,293.16 2511.39,291.40 C2505.15,289.73 2492.27,283.92 2491.73,283.56 C2490.11,282.44 2488.84,280.07 2489.28,278.82 C2490.13,276.72 2503.47,267.04 2511.53,262.26 C2520.08,257.44 2532.31,251.31 2538.68,248.72 C2544.75,246.30 2558.02,241.39 2565.24,238.94 C2572.93,236.55 2590.41,231.80 2596.39,230.44 C2610.63,227.46 2642.13,221.90 2657.50,220.16 C2672.03,218.80 2697.15,218.26 2714.12,218.85 C2747.13,219.42 2814.88,220.08 2849.61,220.17 C2863.34,220.25 2899.75,220.56 2909.56,221.49 C2915.00,222.03 2926.27,224.05 2935.19,226.34 C2943.06,228.51 2960.91,233.85 2966.16,235.61 C2978.52,239.84 2990.29,244.48 2995.72,248.33 C2995.98,248.51 2998.92,250.71 3000.06,251.54 C2998.69,254.03 2996.87,255.13 2991.65,256.70 C2983.96,258.84 2963.13,264.26 2959.86,264.98 C2946.69,267.79 2918.94,270.98 2908.03,272.07 C2891.08,273.57 2857.48,275.02 2838.93,275.39 C2805.66,275.44 2739.34,275.07 2706.29,274.65 C2689.44,274.28 2662.87,272.46 2650.24,271.39 C2642.18,270.99 2629.13,271.18 2624.79,271.24 C2628.17,268.02 2630.61,266.15 2633.64,265.15 C2640.56,262.88 2654.12,259.88 2663.35,258.76 C2677.01,257.27 2706.47,255.94 2725.49,255.92 C2741.06,256.22 2775.84,256.39 2788.08,255.73 C2795.41,255.17 2811.82,253.39 2816.64,252.55 C2823.37,251.24 2837.83,248.67 2844.29,248.60 C2845.26,248.60 2848.96,248.58 2849.34,248.82 C2849.68,249.04 2850.34,249.75 2851.30,250.97 C2850.90,253.47 2849.44,255.21 2845.69,257.68 C2839.28,261.78 2826.53,265.98 2817.45,268.37 C2810.61,270.02 2795.01,273.28 2786.46,274.78 C2773.08,276.86 2739.04,280.41 2722.64,281.64 C2706.62,282.54 2674.52,283.33 2658.51,283.16 C2643.09,282.64 2609.31,280.54 2594.81,279.00 C2586.78,278.00 2568.41,275.71 2568.09,275.68 C2567.63,275.65 2566.56,275.58 2564.87,275.48" fill="none" stroke="rgb(184, 138, 96)" stroke-width="22.53" stroke-opacity="0.90" stroke-linejoin="round"/>
<path d="M2836.08,245.81 C2836.08,245.81 2874.23,245.81 2874.23,245.81" fill="none" stroke="rgb(184, 138, 96)" stroke-width="22.53" stroke-opacity="0.90" stroke-linejoin="round"/>
<path d="M2992.91,279.72 C2991.91,279.55 2986.12,278.63 2980.19,279.72 C2975.41,280.62 2957.39,286.08 2950.52,288.20" fill="none" stroke="rgb(184, 138, 96)" stroke-width="22.53" stroke-opacity="0.90" stroke-linejoin="round"/>
<path d="M2861.51,296.67 C2861.51,296.67 2840.32,296.67 2840.32,296.67" fill="none" stroke="rgb(184, 138, 96)" stroke-width="22.53" stroke-opacity="0.90" stroke-linejoin="round"/>
<path d="M2764.03,300.91 C2756.73,301.08 2739.34,301.38 2733.64,300.36 C2731.49,299.97 2725.61,297.81 2720.63,297.38 C2715.72,296.98 2698.72,297.68 2690.72,297.10 C2677.82,296.14 2648.37,290.48 2641.27,289.02 C2638.15,288.40 2634.08,286.20 2632.63,285.23 C2635.29,284.29 2641.85,282.07 2646.74,281.59 C2652.33,281.08 2688.51,283.87 2704.79,285.22 C2720.32,286.60 2753.20,289.38 2770.54,290.79 C2805.40,293.09 2872.40,296.24 2904.31,297.58 C2912.21,297.86 2926.09,298.42 2931.87,298.79 C2938.89,299.36 2955.26,301.24 2960.73,300.71 C2962.14,300.56 2970.95,298.93 2973.72,299.69 C2974.15,299.81 2974.75,300.08 2975.53,300.49 C2964.56,301.45 2936.50,303.85 2919.42,305.29 C2901.55,306.39 2866.35,308.09 2849.00,308.69 C2818.00,309.02 2747.97,309.93 2727.59,309.24 C2695.95,307.34 2654.43,304.91 2645.35,305.15 C2655.55,301.94 2664.42,299.49 2674.57,298.42 C2688.62,297.07 2721.01,294.31 2739.35,292.90 C2755.15,291.96 2797.85,290.11 2806.73,290.57 C2832.63,292.33 2901.36,292.40 2924.54,294.26 C2933.60,295.12 2949.08,297.65 2953.91,299.22 C2958.22,300.64 2963.95,303.85 2966.20,305.15 C2965.76,306.80 2964.45,309.25 2963.24,310.24 C2960.30,312.57 2921.28,318.52 2906.19,320.39 C2889.49,322.10 2855.13,324.63 2843.53,325.13 C2827.14,325.60 2795.33,324.82 2778.95,323.96 C2747.07,322.53 2691.46,321.14 2656.10,319.67 C2624.39,317.90 2560.22,314.06 2527.76,311.99 C2492.69,309.35 2438.48,305.51 2435.12,305.57 C2428.44,305.74 2412.95,309.67 2406.38,309.47 C2405.50,309.44 2404.63,309.42 2403.76,309.39 C2403.76,309.39 2410.46,306.04 2410.46,306.04" fill="none" stroke="rgb(184, 138, 96)" stroke-width="22.53" stroke-opacity="0.90" stroke-linejoin="round"/>
<path d="M-313.12,279.72" fill="none" stroke="rgb(184, 138, 96)" stroke-width="22.53" stroke-opacity="0.90" stroke-linejoin="round"/>
<path d="M-321.60,279.72 C-321.60,279.72 -325.41,283.53 -325.41,283.53 C-325.41,283.53 -325.84,280.63 -325.84,280.63 C-325.84,280.63 -330.07,279.72 -330.07,279.72 C-330.07,279.72 -330.07,279.72 -330.07,279.72 C-330.07,279.72 -319.61,273.74 -307.15,269.46 C-292.32,264.70 -261.46,254.52 -246.31,248.99 C-232.30,243.50 -208.10,233.12 -189.29,225.67 C-173.44,219.80 -140.87,208.76 -123.74,203.12 C-109.94,198.82 -87.73,192.03 -82.01,191.10 C-78.31,190.51 -66.36,190.70 -56.89,191.35 C-39.24,192.53 -16.30,195.75 5.57,199.86 C21.58,203.10 52.16,210.00 66.53,213.58 C80.93,217.31 110.92,224.69 125.64,227.89 C156.43,233.70 219.59,245.22 251.98,250.93 C261.64,252.72 270.86,254.86 274.03,256.85 C271.65,260.58 269.75,262.76 266.89,263.91 C261.31,266.16 248.02,271.25 240.30,274.09 C231.84,276.94 212.46,282.76 206.50,284.28 C191.79,287.85 160.60,293.44 144.20,295.88 C127.85,298.01 97.22,301.13 81.52,302.59 C66.02,303.77 34.69,305.92 18.88,306.89 C3.22,307.60 -27.83,308.77 -43.23,309.24 C-60.42,309.45 -93.27,309.62 -108.92,309.58 C-129.42,309.04 -143.53,307.36 -163.01,307.56 C-178.89,308.04 -211.06,309.41 -227.35,310.30 C-244.91,311.63 -275.12,314.36 -291.39,315.47 C-302.32,315.97 -314.15,315.69 -320.26,314.31 C-324.41,313.35 -331.44,310.23 -334.41,308.12 C-335.92,306.99 -338.27,304.35 -339.17,302.65 C-339.76,301.50 -341.52,295.90 -341.86,295.13 C-342.51,293.67 -345.02,290.25 -346.22,289.17 C-347.48,288.10 -350.24,286.48 -352.76,285.26 C-356.31,283.61 -360.89,283.60 -362.51,283.96 C-343.50,282.99 -320.29,281.07 -301.58,278.80 C-293.70,277.67 -277.47,274.73 -269.81,273.08 C-255.61,269.74 -225.79,260.87 -211.34,256.01 C-196.14,250.49 -168.04,239.39 -154.98,234.17 C-147.73,231.41 -132.84,225.91 -127.76,224.59 C-120.36,222.69 -105.24,220.21 -97.63,219.14 C-52.27,213.90 9.57,208.08 19.59,207.75 C29.83,207.44 73.46,212.23 87.46,213.94 C123.56,218.97 204.77,230.65 221.93,233.74 C231.20,235.58 243.25,238.54 245.29,239.42 C247.87,240.57 250.63,242.31 252.70,244.13 C254.35,245.65 255.49,247.57 255.47,248.95 C255.39,250.23 254.18,252.09 252.75,253.38 C248.59,256.95 246.93,258.14 242.82,260.50 C236.21,264.17 224.90,267.58 219.09,269.33 C211.56,271.43 197.40,275.20 186.93,277.45 C171.13,280.43 139.51,284.10 123.26,285.39 C106.97,286.35 74.34,287.79 57.99,288.28 C26.24,288.65 -56.60,290.52 -68.46,290.65 C-84.95,290.51 -113.46,288.39 -127.05,287.32 C-144.21,285.96 -171.26,285.40 -185.95,285.45 C-194.21,285.54 -210.85,285.54 -219.22,285.44 C-239.67,284.65 -271.09,281.95 -286.72,280.13 C-307.04,277.46 -320.12,273.43 -322.32,272.75 C-321.87,270.38 -321.44,269.40 -320.20,268.34 C-313.81,262.43 -305.32,256.80 -296.89,252.38 C-283.85,245.84 -251.68,230.79 -237.01,225.11 C-229.35,222.24 -213.04,217.35 -205.69,215.75 C-200.29,214.58 -167.56,209.11 -148.13,206.54 C-133.15,204.79 -106.87,202.41 -86.29,201.37 C-78.09,201.05 -61.78,200.54 -54.04,200.53 C-46.68,200.68 -32.60,201.40 -24.91,202.44 C-17.15,203.51 14.72,210.54 33.66,213.67 C48.32,215.75 79.72,220.04 96.47,222.26 C113.19,224.87 146.45,230.47 162.98,233.46 C179.13,236.62 212.04,242.66 221.49,243.92 C225.55,244.43 235.76,245.31 240.59,245.35 C247.32,245.38 261.96,242.42 263.85,241.50 C267.26,239.79 270.55,235.72 271.47,234.65 C264.04,235.73 252.97,238.69 246.82,240.36 C230.33,245.02 199.60,253.61 185.35,257.55 C168.91,261.85 137.12,269.74 121.77,273.34 C106.13,276.67 74.36,282.95 58.09,285.47 C45.19,287.20 9.30,290.22 -7.33,290.98 C-23.27,291.47 -54.74,292.31 -70.27,292.66 C-85.86,292.86 -116.34,292.97 -131.56,292.54 C-142.91,292.04 -179.64,289.05 -196.16,287.53 C-211.01,286.39 -239.02,284.54 -256.04,284.32 C-272.19,284.06 -305.66,283.36 -322.96,282.91 C-338.24,282.59 -364.00,282.15 -378.46,283.36 C-378.46,283.36 -285.27,265.21 -285.27,265.21 C-309.25,268.35 -368.82,275.94 -405.82,279.90 C-423.94,281.53 -459.70,284.49 -477.35,285.81 C-511.90,287.79 -571.40,291.14 -596.34,292.51 C-597.00,292.55 -597.65,292.60 -598.31,292.64 C-591.92,294.57 -580.50,295.38 -572.85,295.56 C-561.60,295.80 -534.85,296.34 -519.36,296.64 C-501.09,296.75 -463.68,296.72 -444.53,296.57 C-409.46,295.82 -341.22,294.06 -308.04,293.06 C-302.15,292.89 -291.37,292.57 -286.48,292.44 C-281.40,292.36 -276.52,292.41 -274.19,292.44" fill="none" stroke="rgb(184, 138, 96)" stroke-width="22.53" stroke-opacity="0.90" stroke-linejoin="round"/>
<path d="M98.01,258.53" fill="none" stroke="rgb(184, 138, 96)" stroke-width="22.53" stroke-opacity="0.90" stroke-linejoin="round"/>
<path d="M81.06,254.29 C70.67,256.60 27.92,262.97 21.84,263.02 C14.54,262.97 -22.55,266.77 -38.27,267.25 C-46.41,267.31 -62.58,267.14 -70.21,267.28 C-80.41,267.68 -111.43,270.93 -131.41,272.01 C-163.52,273.24 -204.32,274.97 -211.40,275.48 C-197.96,271.73 -166.40,262.84 -148.27,257.71 C-141.93,255.82 -124.67,250.49 -121.31,248.84 C-117.50,247.09 -103.00,243.54 -96.46,241.99 C-88.34,240.20 -69.38,236.62 -64.76,235.99 C-57.91,235.06 -43.25,233.98 -37.53,234.07 C-30.29,234.19 -16.00,235.68 -5.41,237.22 C35.80,243.90 62.22,250.75 64.90,251.65 C66.66,252.26 67.75,253.41 67.98,254.86 C68.03,255.20 68.02,255.80 67.97,256.65 C63.75,259.01 60.91,260.41 57.79,261.26 C51.81,262.86 36.04,266.66 27.29,268.26 C13.44,270.57 -20.99,273.32 -37.04,274.08 C-44.72,274.23 -62.31,274.37 -65.85,274.25 C-75.18,273.92 -91.52,272.03 -96.60,270.13 C-97.59,269.76 -100.93,268.05 -102.19,267.42 C-101.26,264.88 -99.44,263.31 -95.19,261.29 C-88.65,258.27 -75.91,253.60 -66.20,250.65 C-58.82,248.61 -43.95,244.97 -36.55,243.42 C-25.97,241.42 -13.69,239.74 -5.00,239.19 C2.97,238.79 20.04,238.42 27.12,238.43 C34.53,238.56 40.21,240.30 41.36,240.64 C41.73,241.88 41.89,243.93 41.40,244.81 C39.64,247.80 23.47,252.84 17.63,254.66 C7.29,257.69 -4.44,260.54 -15.01,262.66 C-30.11,265.27 -61.18,268.63 -75.45,270.07 C-85.43,270.91 -98.93,271.77 -106.43,272.34 C-114.39,273.05 -129.73,274.51 -137.11,275.26 C-137.86,275.33 -138.60,275.41 -139.34,275.48" fill="none" stroke="rgb(184, 138, 96)" stroke-width="22.53" stroke-opacity="0.90" stroke-linejoin="round"/>
<path d="M-406.37,279.72 C-406.37,279.72 -410.61,279.72 -410.61,279.72" fill="none" stroke="rgb(184, 138, 96)" stroke-width="22.53" stroke-opacity="0.90" stroke-linejoin="round"/>
<path d="M-414.84,279.72 C-430.11,279.96 -473.51,280.98 -477.77,281.97 C-484.16,283.47 -494.04,283.93 -506.57,283.95 C-508.21,283.95 -511.09,283.96 -512.33,283.96 C-481.61,282.18 -417.16,278.47 -383.43,276.53 C-374.35,276.08 -363.24,275.56 -361.20,275.48 C-371.49,275.77 -398.53,276.61 -415.28,277.16 C-451.52,279.07 -521.84,283.23 -555.92,285.47 C-574.78,286.80 -582.09,288.00 -583.29,288.20 C-574.97,285.69 -564.49,284.38 -558.28,283.61 C-535.83,281.36 -484.41,277.82 -460.17,276.20 C-444.72,275.33 -410.38,273.74 -391.49,273.02 C-348.22,272.14 -275.29,270.99 -245.64,270.72 C-212.26,270.62 -141.81,270.58 -104.72,270.64 C-67.00,270.79 2.95,271.05 35.18,271.15 C61.78,271.20 119.39,271.15 150.41,271.07 C169.22,270.78 229.50,268.81 260.72,267.95 C293.28,267.21 363.35,265.64 400.87,264.81 C430.34,264.08 491.66,262.33 523.52,261.30 C547.18,260.47 608.14,259.40 634.43,259.04 C667.99,258.74 735.92,258.39 770.28,258.35 C804.79,258.69 874.13,259.79 908.96,260.54 C939.90,261.34 999.32,262.60 1027.80,263.06 C1042.85,263.09 1065.55,262.76 1080.46,262.78 C1110.80,263.34 1172.63,264.81 1204.11,265.71 C1239.41,266.93 1307.95,269.57 1341.19,270.99 C1373.76,272.71 1436.97,276.31 1467.61,278.20 C1498.06,280.02 1562.38,283.76 1596.26,285.68 C1629.28,287.41 1691.08,290.35 1719.86,291.56 C1745.94,292.28 1812.79,292.92 1844.48,293.56 C1852.06,293.81 1865.94,294.31 1872.25,294.55 C1877.65,294.82 1887.08,295.37 1891.09,295.65 C1893.94,295.89 1898.68,296.30 1900.57,296.46" fill="none" stroke="rgb(184, 138, 96)" stroke-width="22.53" stroke-opacity="0.90" stroke-linejoin="round"/>
<path d="M2658.07,283.96 C2665.81,284.53 2675.53,283.39 2686.51,280.94 C2688.10,280.58 2690.83,279.98 2691.97,279.72" fill="none" stroke="rgb(184, 138, 96)" stroke-width="22.53" stroke-opacity="0.90" stroke-linejoin="round"/>
<path d="M2725.88,275.48 C2725.88,275.48 2738.60,275.48 2738.60,275.48" fill="none" stroke="rgb(184, 138, 96)" stroke-width="22.53" stroke-opacity="0.90" stroke-linejoin="round"/>
<path d="M2772.50,275.48 C2772.50,275.48 2789.46,275.48 2789.46,275.48 C2778.35,275.82 2769.49,275.80 2759.87,274.99 C2752.81,274.21 2740.49,272.87 2726.76,272.09 C2710.72,271.58 2680.14,271.30 2668.24,271.24 C2680.00,271.10 2709.32,270.94 2728.75,271.24 C2744.54,271.76 2776.82,273.10 2793.31,273.92 C2815.48,275.36 2830.60,277.06 2844.56,279.72 C2830.77,280.87 2752.07,291.70 2718.44,295.71 C2698.81,297.65 2667.49,299.88 2653.93,300.69 C2651.72,300.80 2645.02,300.87 2640.57,300.21 C2638.50,299.86 2636.03,299.05 2635.05,298.19 C2633.44,296.72 2630.00,290.01 2628.42,286.92 C2626.28,282.88 2621.34,276.58 2618.25,273.67 C2614.43,270.12 2602.80,262.17 2600.62,260.68 C2605.70,256.93 2609.19,254.68 2612.39,253.54 C2618.51,251.33 2632.84,246.41 2641.04,243.69 C2651.22,240.68 2667.79,236.58 2675.49,235.23 C2684.86,233.60 2701.66,232.16 2709.52,231.56 C2712.37,231.40 2718.41,231.04 2720.90,231.63 C2727.70,233.57 2738.16,235.28 2746.48,235.97 C2760.48,236.96 2790.77,238.59 2808.55,239.89 C2825.80,241.48 2859.68,244.87 2871.90,246.42 C2875.26,246.84 2878.44,248.12 2883.40,251.18 C2886.42,253.06 2923.89,271.12 2940.69,279.09 C2982.39,298.42 3003.36,307.16 3005.12,307.89 C2994.69,306.65 2971.04,303.90 2942.82,303.34 C2915.47,303.31 2849.64,304.48 2816.34,305.10 C2798.80,305.07 2763.83,304.74 2747.99,304.24 C2733.48,303.58 2703.29,301.95 2687.62,300.98 C2671.54,299.65 2635.25,296.86 2628.01,296.70 C2623.99,296.61 2609.11,296.93 2600.66,296.21 C2593.76,295.57 2577.46,293.63 2568.97,292.54 C2558.45,290.94 2544.78,288.31 2538.03,285.95 C2536.66,285.46 2531.23,283.54 2528.23,281.22 C2534.70,270.63 2555.06,243.46 2565.73,229.32 C2570.95,222.53 2583.63,206.25 2583.83,205.97 C2585.05,204.32 2586.23,203.48 2587.62,203.49 C2587.88,203.50 2628.35,209.31 2645.81,211.66 C2678.08,215.41 2735.01,222.00 2772.68,227.78 C2788.55,230.62 2819.15,236.44 2834.34,239.82 C2862.21,246.63 2897.22,257.97 2900.15,258.96 C2901.77,259.45 2902.59,260.34 2903.90,262.77 C2903.90,262.77 2995.62,287.72 2995.62,287.72 C2994.74,289.91 2994.12,290.60 2992.59,290.81 C2992.44,290.84 2976.12,293.99 2961.05,295.67 C2947.74,296.73 2917.66,298.80 2900.89,299.82 C2869.02,301.14 2805.15,303.29 2772.67,303.65 C2756.98,303.56 2725.38,303.16 2709.46,302.84 C2693.60,302.31 2662.22,301.03 2646.69,300.28 C2614.39,298.16 2551.75,292.62 2520.84,289.65 C2505.28,287.91 2474.29,284.56 2458.71,283.19 C2424.99,280.79 2372.96,279.93 2357.13,279.72 C2362.08,280.08 2381.60,277.80 2385.98,277.05 C2395.04,275.48 2404.29,272.60 2414.30,269.00 C2389.38,269.92 2327.42,272.13 2290.37,273.41 C2255.94,274.26 2189.97,275.50 2158.43,275.89 C2127.26,276.37 2066.06,277.64 2036.04,278.43 C2005.37,279.50 1940.86,281.44 1907.01,282.32 C1872.75,282.82 1802.12,283.55 1765.77,283.78 C1750.93,283.78 1724.56,283.71 1713.03,283.63 C1704.96,283.53 1700.34,282.58 1692.96,280.14 C1692.96,280.14 1698.80,279.72 1698.80,279.72" fill="none" stroke="rgb(184, 138, 96)" stroke-width="22.53" stroke-opacity="0.90" stroke-linejoin="round"/>
<path d="M1988.38,271.24 C1988.38,271.24 1958.71,271.24 1958.71,271.24" fill="none" stroke="rgb(184, 138, 96)" stroke-width="22.53" stroke-opacity="0.90" stroke-linejoin="round"/>
<path d="M1623.87,267.00 C1623.87,267.00 1573.01,267.00 1573.01,267.00" fill="none" stroke="rgb(184, 138, 96)" stroke-width="22.53" stroke-opacity="0.90" stroke-linejoin="round"/>
<path d="M1352.61,267.00 C1352.61,267.00 1284.79,267.00 1284.79,267.00" fill="none" stroke="rgb(184, 138, 96)" stroke-width="22.53" stroke-opacity="0.90" stroke-linejoin="round"/>
<path d="M2191.83,254.29 C2184.32,255.78 2174.22,257.75 2162.46,259.24 C2159.52,259.63 2141.64,265.34 2133.64,266.51 C2101.84,270.82 2026.82,280.44 2001.53,282.97 C1981.47,284.57 1918.80,287.20 1892.73,288.05 C1859.17,288.85 1795.21,290.32 1764.79,290.98 C1730.05,291.54 1662.35,292.06 1629.38,292.01 C1610.78,291.67 1574.21,290.76 1556.24,290.19 C1523.02,288.57 1464.65,285.66 1439.50,284.38 C1420.78,283.49 1389.69,282.04 1377.93,281.23 C1369.04,280.53 1335.74,275.45 1332.20,274.60 C1330.46,274.17 1322.51,272.08 1321.65,271.88 C1321.29,271.81 1320.76,271.70 1320.06,271.58" fill="none" stroke="rgb(184, 138, 96)" stroke-width="22.53" stroke-opacity="0.90" stroke-linejoin="round"/>
<path d="M1852.75,211.90 C1854.23,210.24 1855.67,209.23 1857.87,208.54 C1861.43,207.45 1864.33,207.53 1865.47,207.67" fill="none" stroke="rgb(184, 138, 96)" stroke-width="22.53" stroke-opacity="0.90" stroke-linejoin="round"/>
<path d="M1899.37,199.19 C1897.66,199.05 1891.83,202.08 1889.18,202.72 C1886.59,203.33 1880.72,203.41 1879.48,203.43 C1878.95,203.43 1878.30,203.43 1878.18,203.43" fill="none" stroke="rgb(184, 138, 96)" stroke-width="22.53" stroke-opacity="0.90" stroke-linejoin="round"/>
<path d="M1818.84,203.43 C1809.15,202.84 1799.81,203.93 1792.77,205.61 C1786.27,207.09 1770.78,207.80 1761.74,207.92 C1746.02,207.69 1712.28,207.44 1694.11,207.76 C1677.43,208.40 1643.66,209.98 1626.57,210.90 C1589.92,212.40 1555.23,211.76 1511.67,213.24 C1494.34,213.86 1461.28,214.86 1445.55,215.24 C1417.42,215.40 1356.45,216.12 1323.62,216.68 C1290.50,217.59 1224.30,219.31 1191.20,220.12 C1153.86,220.45 1091.09,220.58 1065.66,220.38 C1065.66,220.38 1065.24,219.11 1065.24,219.11 C1074.82,216.46 1081.78,214.97 1089.76,213.90 C1102.28,212.32 1131.44,208.81 1148.07,206.88 C1166.80,205.10 1202.87,202.00 1220.21,200.69 C1251.72,198.92 1315.96,195.88 1348.70,194.60 C1383.18,193.74 1452.23,192.57 1486.79,192.26 C1512.66,191.97 1549.16,191.23 1590.44,192.15 C1624.99,193.01 1693.65,194.48 1727.76,195.09 C1762.42,195.09 1813.68,195.02 1830.29,194.95 C1827.44,196.44 1815.74,199.16 1806.27,200.74 C1789.76,203.38 1759.56,207.39 1747.82,208.53 C1716.18,210.64 1654.66,214.43 1624.77,216.10 C1587.86,218.07 1518.94,221.49 1486.94,222.94 C1468.86,223.56 1433.34,224.52 1415.90,224.88 C1388.10,224.82 1330.25,224.58 1300.20,224.40 C1267.15,224.18 1205.57,223.44 1177.04,222.93 C1152.65,222.11 1090.17,220.79 1052.07,220.28 C1021.16,220.16 952.06,220.02 913.88,220.00 C878.58,220.12 817.97,220.50 792.66,220.76 C785.88,220.82 772.15,222.55 761.80,224.45 C755.49,225.67 749.45,227.78 748.57,228.08" fill="none" stroke="rgb(184, 138, 96)" stroke-width="22.53" stroke-opacity="0.90" stroke-linejoin="round"/>
<path d="M1725.60,300.91 C1721.98,300.41 1716.44,301.11 1713.30,302.18 C1707.49,304.18 1692.88,304.97 1684.73,304.99 C1659.46,305.12 1592.18,307.78 1564.20,309.04 C1536.94,309.37 1478.17,309.79 1446.65,309.87 C1411.20,309.75 1342.19,309.33 1308.63,309.02 C1276.39,308.57 1211.09,307.52 1178.04,306.91 C1146.54,306.15 1082.09,304.34 1049.14,303.29 C1016.55,301.96 953.10,299.42 922.24,298.21 C907.15,297.78 874.73,297.01 857.40,296.66 C820.45,296.49 755.78,296.47 728.06,296.63 C725.76,296.64 721.42,296.66 719.38,296.67 C733.11,296.46 763.78,295.76 778.06,295.03 C790.50,294.13 814.90,292.15 839.89,291.06 C866.33,290.25 926.81,288.56 960.85,287.68 C996.04,286.50 1065.60,283.93 1099.98,282.53 C1133.28,280.98 1195.53,277.79 1224.47,276.16 C1245.30,274.65 1261.81,272.89 1278.54,271.55 C1309.09,269.82 1374.94,266.59 1410.25,265.09 C1424.45,264.57 1459.63,263.48 1480.62,262.92 C1500.93,262.73 1502.06,262.83 1504.77,263.19 C1499.31,266.06 1495.57,267.71 1492.25,268.42 C1480.38,270.96 1453.84,274.70 1439.25,276.18 C1412.29,278.71 1349.76,284.17 1314.19,287.09 C1279.16,289.48 1214.56,293.63 1185.00,295.40 C1152.71,297.14 1087.26,300.54 1054.09,302.20 C1021.37,303.73 954.13,306.77 919.62,308.27 C884.75,309.67 816.33,312.33 782.78,313.58 C754.51,314.61 693.04,316.80 659.84,317.96 C632.16,318.94 574.73,321.61 544.97,323.31 C528.59,324.52 496.00,327.19 479.79,328.64 C471.47,329.58 456.68,331.30 450.22,332.09 C443.57,332.91 434.40,334.02 431.88,334.32" fill="none" stroke="rgb(184, 138, 96)" stroke-width="22.53" stroke-opacity="0.90" stroke-linejoin="round"/>
<path d="M1450.09,305.15 C1435.53,305.03 1402.63,304.88 1388.74,305.15 C1376.73,305.62 1366.81,307.33 1360.55,307.81 C1354.57,308.27 1277.41,309.32 1242.86,309.63 C1206.74,309.42 1136.44,308.59 1102.24,307.98 C1068.63,307.11 1006.55,305.58 978.10,304.92 C961.50,304.65 933.94,304.34 921.31,304.48 C890.30,305.33 823.29,307.52 787.29,308.87 C747.73,310.53 701.47,313.99 689.28,313.63 C702.59,313.63 734.26,313.09 745.52,312.58 C775.04,310.95 840.51,307.00 876.46,304.67 C906.50,302.57 969.45,298.10 1002.36,295.75 C1035.35,293.78 1100.57,290.31 1132.80,288.82 C1164.86,287.75 1228.41,285.65 1259.89,284.63 C1293.84,283.42 1362.32,280.84 1396.85,279.48 C1411.63,278.84 1438.74,277.61 1451.06,277.03 C1468.69,275.96 1498.82,273.79 1511.97,272.89 C1533.65,271.88 1578.18,271.26 1581.06,271.24 C1579.36,273.32 1577.25,274.43 1572.70,275.66 C1564.89,277.70 1552.54,279.66 1544.53,280.45 C1516.85,282.84 1452.78,287.82 1416.38,290.43 C1390.53,291.97 1337.81,294.94 1310.95,296.35 C1276.76,297.84 1202.69,300.78 1162.81,302.23 C1132.73,303.22 1068.95,305.23 1035.25,306.27 C997.93,307.35 924.21,309.44 887.82,310.43 C856.94,311.20 800.66,312.49 775.28,313.01 C757.96,313.16 720.73,313.16 704.59,312.77 C679.98,311.72 625.02,309.83 594.66,309.00 C570.15,307.97 513.31,303.54 499.92,302.39 C498.10,302.24 496.43,301.99 494.64,301.56 C494.23,301.46 493.61,301.30 492.79,301.06" fill="none" stroke="rgb(184, 138, 96)" stroke-width="22.53" stroke-opacity="0.90" stroke-linejoin="round"/>
<path d="M1166.11,190.71 C1168.83,190.82 1176.17,191.11 1179.16,191.00 C1183.44,190.80 1189.75,187.81 1193.26,187.18 C1196.83,186.56 1211.38,186.48 1212.74,186.47 C1202.42,186.34 1167.31,187.54 1153.22,188.60 C1122.17,191.76 1068.59,196.95 1038.60,198.72 C1011.35,200.08 944.31,204.94 918.84,206.94 C889.61,209.30 825.55,214.54 790.74,217.41 C753.50,220.47 682.21,226.19 648.16,228.86 C617.40,231.11 546.00,236.01 505.35,238.66 C468.96,240.49 404.86,243.31 377.14,244.30 C343.67,245.36 314.70,245.40 300.74,244.98 C290.66,244.58 259.89,242.58 250.01,241.94" fill="none" stroke="rgb(184, 138, 96)" stroke-width="22.53" stroke-opacity="0.90" stroke-linejoin="round"/>
<path d="M3275.84,233.95 C3275.84,233.95 3284.08,233.95 3284.08,233.95 C3284.08,233.95 3288.20,233.95 3288.20,233.95 C3288.20,233.95 3292.31,242.18 3292.31,242.18 C3292.31,242.18 3288.20,246.30 3288.20,246.30" fill="none" stroke="rgb(255, 195, 139)" stroke-width="189.02" stroke-opacity="1.00" stroke-linejoin="round"/>
<path d="M3284.08,246.30 L-566.31,250.42" fill="none" stroke="rgb(255, 195, 139)" stroke-width="189.02" stroke-opacity="1.00" stroke-linejoin="round"/>
<path d="M-566.31,250.42" fill="none" stroke="rgb(255, 195, 139)" stroke-width="189.02" stroke-opacity="1.00" stroke-linejoin="round"/>
<path d="M723.27,-806.28" fill="none" stroke="rgb(255, 195, 139)" stroke-width="189.02" stroke-opacity="1.00" stroke-linejoin="round"/>
</g>
</svg>
